<svg width="167" height="181" viewBox="0 0 167 181" fill="none" xmlns="http://www.w3.org/2000/svg">
<g id="loading">
<path id="Line 1" d="M68.1691 24.6335L54.9193 5L36.0904 29.5418C36.0904 29.5418 29.2318 38.7359 28.4194 45.6693C27.2182 55.9209 30.0533 61.4785 38.1825 70.2112C48.1143 80.8803 59.28 84.9511 73.7481 86.3386C89.764 87.8746 99.307 87.562 114.195 81.4303C127.618 75.9019 144.182 61.0956 142.787 57.5896C139.931 50.412 135.116 39.3586 135.116 39.3586L131.629 16.2191L113.498 27.4382" stroke="white" stroke-width="5"/>
<path id="Line 2" d="M17.6382 80.0279C17.6382 80.0279 5.18858 93.9383 3.74977 105.038C1.85687 119.641 2.90838 136.286 14.4725 148.745C28.6009 163.967 45.4958 169.905 66.0772 171.884C88.8606 174.076 102.436 173.63 123.615 164.882C142.71 156.994 165.27 131.563 163.944 122.559C162.618 113.555 149.064 90.5458 149.064 90.5458" stroke="white" stroke-width="5"/>
<ellipse id="Ellipse 14" cx="87.6956" cy="51.2789" rx="2.09209" ry="2.10359" fill="white"/>
<ellipse id="Ellipse 15" cx="112.801" cy="51.2789" rx="2.09209" ry="2.10359" fill="white"/>
<path id="Ellipse 16" d="M36.1315 116.116C36.1315 120.603 32.5152 124.231 28.0657 124.231C23.6163 124.231 20 120.603 20 116.116C20 111.628 23.6163 108 28.0657 108C32.5152 108 36.1315 111.628 36.1315 116.116Z" stroke="white" stroke-width="2"/>
<ellipse id="Ellipse 20" cx="22.8406" cy="101.064" rx="5.57891" ry="5.60956" fill="#FFAFAF"/>
<ellipse id="Ellipse 21" cx="50.7352" cy="67.4064" rx="5.57891" ry="5.60956" fill="#EAC43D"/>
<ellipse id="Ellipse 22" cx="126.051" cy="88.4422" rx="5.57891" ry="5.60956" fill="#C7F7FA"/>
<path id="Ellipse 17" d="M147.366 125.606C147.366 130.093 143.75 133.721 139.301 133.721C134.851 133.721 131.235 130.093 131.235 125.606C131.235 121.118 134.851 117.49 139.301 117.49C143.75 117.49 147.366 121.118 147.366 125.606Z" stroke="white" stroke-width="2"/>
<ellipse id="Ellipse 18" cx="122.564" cy="166.275" rx="10.4605" ry="10.5179" fill="white"/>
<ellipse id="Ellipse 19" cx="52.13" cy="169.781" rx="11.1578" ry="11.2191" fill="white"/>
</g>
</svg>
