<svg width="39" height="30" viewBox="0 0 39 30" fill="none" xmlns="http://www.w3.org/2000/svg">
<g id="refresh">
<path id="Subtract" fill-rule="evenodd" clip-rule="evenodd" d="M32.6574 9.28946C34.0026 11.8382 34.7064 14.6836 34.7064 17.5736H31.1273C31.1281 17.5133 31.1284 17.4529 31.1284 17.3924C31.1284 9.78801 25.0412 3.62342 17.5321 3.62342C10.0231 3.62342 3.93578 9.78801 3.93578 17.3924C3.93578 21.1946 5.4576 24.6369 7.91806 27.1286L5.08264 30C3.06473 27.9565 1.57562 25.4405 0.747224 22.6749C-0.0811762 19.9094 -0.223301 16.9796 0.333438 14.1452C0.890178 11.3107 2.1286 8.65902 3.939 6.42503C5.7494 4.19103 8.0759 2.44367 10.7124 1.33771C13.349 0.231761 16.2141 -0.198643 19.0541 0.0846261C21.8941 0.367895 24.6213 1.35609 26.9941 2.96169C29.367 4.56728 31.3121 6.74071 32.6574 9.28946Z" fill="white"/>
<path id="Polygon 1" d="M32.5596 26.451L26.9821 16.6678L38.1372 16.6678L32.5596 26.451Z" fill="white"/>
</g>
</svg>
