<svg width="26" height="28" viewBox="0 0 26 28" fill="none" xmlns="http://www.w3.org/2000/svg">
<g id="Search">
<path id="Subtract" fill-rule="evenodd" clip-rule="evenodd" d="M15.1357 18.1046C19.0153 15.8648 20.3445 10.904 18.1046 7.02451C15.8648 3.14497 10.9041 1.81575 7.02452 4.0556C3.14498 6.29545 1.81576 11.2562 4.05561 15.1357C6.29546 19.0153 11.2562 20.3445 15.1357 18.1046ZM14.0542 16.2314C16.8992 14.5889 17.874 10.951 16.2314 8.106C14.5889 5.26101 10.951 4.28625 8.10601 5.9288C5.26102 7.57136 4.28626 11.2092 5.92881 14.0542C7.57137 16.8992 11.2092 17.874 14.0542 16.2314Z" fill="white"/>
<rect id="Rectangle 40" x="13.2891" y="17.6098" width="2.70374" height="7.84084" rx="1.35187" transform="rotate(-30 13.2891 17.6098)" fill="white"/>
</g>
</svg>
