<svg width="43" height="43" viewBox="0 0 43 43" fill="none" xmlns="http://www.w3.org/2000/svg">
<g id="settings">
<path id="Intersect" fill-rule="evenodd" clip-rule="evenodd" d="M23.4355 5.51425C24.0005 5.92364 24.4478 6.53504 24.6614 7.34845C25.2149 9.45573 27.6255 10.4542 29.507 9.35552C30.1473 8.98159 30.805 8.84717 31.4239 8.896C32.5786 9.81039 33.6068 10.8776 34.4779 12.0671C34.5005 12.6493 34.3601 13.2621 34.0111 13.8597C32.9124 15.7411 33.9109 18.1517 36.0182 18.7052C36.6124 18.8612 37.0988 19.142 37.4774 19.5023C37.5746 20.2232 37.6249 20.9591 37.6249 21.7067C37.6249 22.6019 37.5529 23.4803 37.4143 24.3363C37.0453 24.6685 36.5799 24.9275 36.0182 25.075C33.9109 25.6285 32.9124 28.0391 34.0111 29.9205C34.2893 30.397 34.435 30.8831 34.4712 31.3556C33.482 32.7043 32.2908 33.8956 30.9421 34.8847C30.4695 34.8485 29.9834 34.7029 29.507 34.4247C27.6255 33.326 25.2149 34.3245 24.6614 36.4318C24.5139 36.9935 24.2549 37.4588 23.9227 37.8279C23.0667 37.9664 22.1883 38.0385 21.2932 38.0385C20.5455 38.0385 19.8096 37.9882 19.0887 37.8909C18.7284 37.5123 18.4477 37.0259 18.2916 36.4318C17.7382 34.3245 15.3275 33.326 13.4461 34.4247C12.8485 34.7737 12.2357 34.914 11.6535 34.8915C10.464 34.0204 9.39682 32.9922 8.48242 31.8375C8.43359 31.2186 8.56801 30.5608 8.94195 29.9205C10.0407 28.0391 9.04215 25.6285 6.93487 25.075C6.12147 24.8614 5.51007 24.414 5.10068 23.8491C5.00882 23.148 4.96143 22.4329 4.96143 21.7067C4.96143 21.1319 4.99112 20.564 5.04907 20.0045C5.45794 19.405 6.08654 18.928 6.93487 18.7052C9.04215 18.1517 10.0407 15.7411 8.94195 13.8597C8.47493 13.06 8.38151 12.2331 8.55209 11.4886C9.29879 10.5588 10.1452 9.71236 11.075 8.96566C11.8195 8.79509 12.6464 8.88851 13.4461 9.35552C15.3275 10.4542 17.7382 9.45573 18.2916 7.34844C18.5144 6.50012 18.9914 5.87152 19.5909 5.46264C20.1504 5.4047 20.7183 5.375 21.2932 5.375C22.0193 5.375 22.7344 5.42239 23.4355 5.51425ZM29.539 21.8901C29.539 26.3429 25.9293 29.9526 21.4765 29.9526C17.0237 29.9526 13.414 26.3429 13.414 21.8901C13.414 17.4373 17.0237 13.8276 21.4765 13.8276C25.9293 13.8276 29.539 17.4373 29.539 21.8901Z" fill="white"/>
</g>
</svg>
